<?xml version="1.0" encoding="UTF-8" standalone="no" ?>
<!DOCTYPE svg PUBLIC "-//W3C//DTD SVG 1.1//EN" "http://www.w3.org/Graphics/SVG/1.1/DTD/svg11.dtd">
<svg xmlns="http://www.w3.org/2000/svg" xmlns:xlink="http://www.w3.org/1999/xlink" version="1.1" width="100" height="100" viewBox="0 0 100 100" xml:space="preserve">
<desc>Created with Fabric.js 5.3.0</desc>
<defs>
</defs>
<g transform="matrix(0.2700347859 0 0 0.2700347953 49.8649827058 16.5387133616)" id="U8Jyv6bV5IyV9RZ7rQKSs"  >
<path style="stroke: rgb(0,0,0); stroke-width: 1; stroke-dasharray: none; stroke-linecap: butt; stroke-dashoffset: 0; stroke-linejoin: miter; stroke-miterlimit: 4; fill: rgb(0,0,0); fill-rule: nonzero; opacity: 1;"  transform=" translate(-0.000005, -0.000005)" d="M -107.2114 21.41336 L 95.77025 21.41336 L 117.68738 -0.6798599999999979 L 117.68738 -21.413349999999998 L -117.68737 -21.413349999999998 L -117.68737 9.85499 z" stroke-linecap="round" />
</g>
<g transform="matrix(0.2700347859 0 0 0.2700347953 24.5875687082 33.8240923026)" id="uWtcQ53Cqz-lrDClZA_AR"  >
<path style="stroke: rgb(77,67,120); stroke-width: 1; stroke-dasharray: none; stroke-linecap: butt; stroke-dashoffset: 0; stroke-linejoin: miter; stroke-miterlimit: 4; fill: rgb(77,67,120); fill-rule: nonzero; opacity: 1;"  transform=" translate(0, -0.000005)" d="M -24.07938 -21.35678 L -18.46668 -21.35678 L 24.079379999999997 21.356789999999997 L -24.079380000000004 21.356789999999997 z" stroke-linecap="round" />
</g>
<g transform="matrix(0.2700347859 0 0 0.2700347953 48.2755354025 33.8240923026)" id="3DQHYqRfhdeiZ_CyPJ4w5"  >
<path style="stroke: rgb(77,67,120); stroke-width: 1; stroke-dasharray: none; stroke-linecap: butt; stroke-dashoffset: 0; stroke-linejoin: miter; stroke-miterlimit: 4; fill: rgb(77,67,120); fill-rule: nonzero; opacity: 1;"  transform=" translate(0.000005, -0.000005)" d="M -79.26675 -21.85678 L 80.62038000000001 -21.85678 L 36.99519000000001 21.856789999999997 L -38.36564999999999 21.856789999999997 L -80.62038999999999 -21.85678 z" stroke-linecap="round" />
</g>
<g transform="matrix(0.2700347859 0 0 0.2700347953 33.0235083362 50.9839781729)" id="GeKZGhwe7GIC9RcA01WsR"  >
<path style="stroke: rgb(166,164,196); stroke-width: 1; stroke-dasharray: none; stroke-linecap: butt; stroke-dashoffset: 0; stroke-linejoin: miter; stroke-miterlimit: 4; fill: rgb(166,164,196); fill-rule: nonzero; opacity: 1;"  transform=" translate(0.00001, 0)" d="M -55.31958 -20.75597 L 14.072890000000001 -20.75597 L 55.31957 20.75597 L -55.319590000000005 20.75597 z" stroke-linecap="round" />
</g>
<g transform="matrix(0.2700347859 0 0 0.2700347953 47.8542779294 47.6037083908)" id="qT5039OU7gNjLKEOldKrL"  >
<path style="stroke: rgb(166,164,196); stroke-width: 1; stroke-dasharray: none; stroke-linecap: butt; stroke-dashoffset: 0; stroke-linejoin: miter; stroke-miterlimit: 4; fill: rgb(166,164,196); fill-rule: nonzero; opacity: 1;"  transform=" translate(0.000005, -0.000005)" d="M -17.37401 -8.73806 L 17.374000000000002 -8.73806 L -0.26525999999999783 8.73807 z" stroke-linecap="round" />
</g>
<g transform="matrix(0.2700347859 0 0 0.2700347953 41.6263235255 68.1391412638)" id="zlHwezn_LPigF50jVaZtv"  >
<path style="stroke: rgb(139,134,205); stroke-width: 1; stroke-dasharray: none; stroke-linecap: butt; stroke-dashoffset: 0; stroke-linejoin: miter; stroke-miterlimit: 4; fill: rgb(139,134,205); fill-rule: nonzero; opacity: 1;"  transform=" translate(0, 0)" d="M -87.17775 -21.41527 L 44.53343000000001 -21.41527 L 87.17775 21.41527 L -87.17775 21.41527 z" stroke-linecap="round" />
</g>
<g transform="matrix(0.2700347859 0 0 0.2700347953 50.0000000988 85.0572132632)" id="Udp1uXhhdcIsTsbxbPWq5"  >
<path style="stroke: rgb(100,95,206); stroke-width: 1; stroke-dasharray: none; stroke-linecap: butt; stroke-dashoffset: 0; stroke-linejoin: miter; stroke-miterlimit: 4; fill: rgb(100,95,206); fill-rule: nonzero; opacity: 1;"  transform=" translate(-0.000005, 0)" d="M -118.18737 -20.10524 L 77.62266999999999 -20.10524 L 118.18737999999999 20.10524 L -118.18737000000002 18.93219 z" stroke-linecap="round" />
</g>
<g transform="matrix(0.2700347859 0 0 0.2700347953 72.4899473648 52.6843676883)" id="ue9evqMZGL5Ba3poSnxXf"  >
<path style="stroke: rgb(0,0,0); stroke-width: 1; stroke-dasharray: none; stroke-linecap: butt; stroke-dashoffset: 0; stroke-linejoin: miter; stroke-miterlimit: 4; fill: rgb(6,5,5); fill-rule: nonzero; opacity: 1;"  transform=" translate(0.000005, 0)" d="M 33.902 -69.84387 L 33.902 69.84387 L -33.902010000000004 1.1272900000000021 z" stroke-linecap="round" />
</g>
</svg>